# xmcd
#
# Track frame offsets: 
#        150
#        21146
#        76275
#        104097
#        139761
#        165565
#        196735
#        224533
#        278553
#        307406
#
# Disc length: 4529 seconds
#
# Revision: 1
# Processed by: cddbd v1.5.2PL0 Copyright (c) Steve Scherf et al.
# Submitted via: ExactAudioCopy v0.99pb3
#
DISCID=8e11af0a
DTITLE=Stan Webb's Chicken Shack - Still Live After All These Years
DYEAR=2003
DGENRE=Blues
TTITLE0=So Tell Me Now
TTITLE1=The Thrill Is Gone
TTITLE2=Reconsider Baby
TTITLE3=(You Are) The Sweetest Little Thing 
TTITLE4=I Know, You Know
TTITLE5=Saw Her Standing There
TTITLE6=Night Life
TTITLE7=The Chicken Shack Opera
TTITLE8=(Oh Please) Doctor Brown
TTITLE9=I'd Rather Go Blind
EXTD=
EXTT0=
EXTT1=
EXTT2=
EXTT3=
EXTT4=
EXTT5=
EXTT6=
EXTT7=
EXTT8=
EXTT9=
PLAYORDER=
